<?xml version="1.0" encoding="UTF-8"?>
<!-- Generator: Adobe Illustrator 26.0.3, SVG Export Plug-In . SVG Version: 6.00 Build 0)  -->
<svg xmlns="http://www.w3.org/2000/svg" xmlns:xlink="http://www.w3.org/1999/xlink" version="1.1" id="Layer_1" x="0px" y="0px" viewBox="0 0 443 81.1" style="enable-background:new 0 0 443 81.1;" xml:space="preserve">
<g>
	<g>
		<path d="M206,64.5c-1.7,4.5-4.4,8.1-7.9,10.9c-3.5,2.8-7.6,4.2-12.2,4.2c-3.9,0-7.3-0.8-10.2-2.4c-2.9-1.6-5.1-3.9-6.6-6.7    c-1.5-2.8-2.3-6-2.3-9.4c0-4,1-7.5,2.9-10.5c1.9-3,4.6-5.3,7.9-6.9c3.3-1.6,7-2.4,11-2.4c3.3,0,6,0.5,8.2,1.6    c2.2,1,3.9,2.4,4.9,4.1c1.1,1.7,1.6,3.6,1.6,5.6c0,1.3-0.2,2.5-0.6,3.5h-26c-0.1,0.7-0.1,1.8-0.1,3.2c0,5,1.3,8.9,3.8,11.9    c2.5,2.9,5.9,4.4,10.2,4.4c3.3,0,6.3-1,8.9-3c2.6-2,4.6-4.8,6.1-8.2L206,64.5z M181.3,45.9c-2.4,2.4-3.9,5.6-4.5,9.6h25.5    c0.3-0.9,0.5-1.9,0.5-2.9c0-1.9-0.5-3.7-1.5-5.2c-1-1.6-2.4-2.8-4.2-3.7c-1.8-0.9-3.9-1.3-6.3-1.3    C186.9,42.3,183.7,43.5,181.3,45.9z"></path>
		<path d="M240.3,26.1l9-1.6V79h-7.5l-1.3-10.1c-1.9,3.6-4.2,6.3-6.8,8.1c-2.7,1.7-5.5,2.6-8.6,2.6c-3,0-5.7-0.7-8-2.2    c-2.3-1.5-4.1-3.6-5.3-6.3c-1.3-2.7-1.9-5.8-1.9-9.4c0-4,0.7-7.5,2-10.5c1.3-3.1,3.3-5.5,5.9-7.2c2.6-1.7,5.8-2.6,9.6-2.6    c3.3,0,6.1,0.8,8.4,2.5c2.2,1.7,3.8,3.9,4.6,6.7V26.1z M235.1,75.1c2.1-1.6,3.8-4,5.2-7.2V54.4c0-1.9-0.4-3.7-1.3-5.4    c-0.9-1.7-2.1-3.1-3.6-4.1c-1.5-1-3.2-1.6-5.1-1.6c-3.3,0-5.8,1.3-7.6,4c-1.8,2.7-2.8,7.2-2.8,13.5c0,4.9,0.6,8.9,1.7,12    c1.1,3.1,3.5,4.7,7.1,4.7C230.8,77.5,233,76.7,235.1,75.1z"></path>
		<path d="M258.9,34.8c-1.1-1.1-1.7-2.4-1.7-4c0-1.6,0.6-2.9,1.7-4c1.1-1.1,2.4-1.6,3.9-1.6c1.6,0,2.9,0.5,4,1.6    c1.1,1.1,1.6,2.4,1.6,4c0,1.6-0.5,2.9-1.6,4c-1.1,1.1-2.4,1.7-4,1.7C261.3,36.5,260,35.9,258.9,34.8z M267.4,79h-9.2V42.8l9.2-1.6    V79z"></path>
		<path d="M283.8,77.1c-2.9-1.6-5.1-3.9-6.6-6.7c-1.5-2.8-2.3-6-2.3-9.4c0-4,1-7.5,2.9-10.5c1.9-3,4.6-5.3,7.9-6.9    c3.3-1.6,7-2.4,11-2.4c3.3,0,6,0.5,8.2,1.6c2.2,1,3.9,2.4,4.9,4.1c1.1,1.7,1.6,3.6,1.6,5.6c0,1.3-0.2,2.5-0.6,3.5l-0.5-0.1    c0.4-1.2,0.6-2.3,0.6-3.3c0-3-1.1-5.4-3.3-7.4c-2.2-1.9-5-2.9-8.6-2.9c-4.6,0-8.1,1.6-10.6,4.7c-2.5,3.1-3.8,7.2-3.8,12.2    c0,5,1.3,8.9,3.8,11.9c2.5,2.9,5.9,4.4,10.2,4.4c3.3,0,6.3-1,8.9-3c2.6-2,4.6-4.8,6.1-8.2l0.5,0.2c-1.7,4.5-4.4,8.1-7.9,10.9    c-3.5,2.8-7.6,4.2-12.2,4.2C290.1,79.6,286.7,78.8,283.8,77.1z"></path>
		<path d="M350,44.4c3.3,2.1,5,5.6,5,10.7V79h-7.6l-1.5-10.3c-1.2,3.1-3.2,5.6-6.1,7.7c-2.9,2.1-6.5,3.1-10.7,3.1    c-3.7,0-6.5-0.7-8.5-2.2c-2-1.5-3-3.6-3-6.4c0-2.2,0.6-3.9,1.9-5.1c1.3-1.2,2.8-2.2,4.7-2.8c1.9-0.6,4.4-1.2,7.6-1.8    c3.6-0.7,6.5-1.5,8.7-2.3c2.2-0.8,4-2.1,5.3-3.7v-2.1c0-3.3-1-6-2.9-8c-2-2-4.9-3-8.7-3c-3.5,0-6.5,0.8-9,2.4    c-2.5,1.6-3.8,3.9-3.8,6.8c0,1.6,0.4,2.9,1.2,3.9c0.8,1.1,1.9,1.8,3.3,2.2l-0.2,0.6c-1.3-0.4-2.4-1.1-3.4-2.2    c-1-1.1-1.5-2.6-1.5-4.5c0-3.5,1.5-6.1,4.6-7.7c3.1-1.6,6.9-2.4,11.4-2.4C342.3,41.3,346.7,42.3,350,44.4z M339.1,75.8    c1.7-1.1,3.2-2.5,4.3-4.2c1.2-1.7,1.9-3.3,2.4-5V56.1c-1.1,1.1-2.3,2-3.6,2.5c-1.3,0.6-3.1,1.2-5.2,1.8c-2.2,0.6-3.9,1.2-5.1,1.8    c-1.2,0.6-2.3,1.5-3.1,2.8c-0.8,1.3-1.2,3.1-1.2,5.4c0,2,0.5,3.6,1.4,4.9c0.9,1.3,2.5,1.9,4.6,1.9    C335.5,77.4,337.4,76.9,339.1,75.8z"></path>
	</g>
	<g>
		<g>
			<path d="M147.2,20l-21.1,34.5l-0.2,0.4l-6.6,10.7L91.3,20.9l-2.5,44H88l3.6-63.4h0.8l32.7,52.7l22-35.7V20z"></path>
		</g>
		<g>
			<path d="M160.5,79h-13l-2.6-43.7l-21.3,34.5v-1.5L156,15.6h0.9L160.5,79z"></path>
		</g>
	</g>
</g>
</svg>
