<svg xmlns="http://www.w3.org/2000/svg" width="212.504" height="58.218" viewBox="0 0 212.504 58.218"><defs><style>.a{fill:#fff;}</style></defs><path class="a" d="M192.321-204.2a2.822,2.822,0,0,1-.947-.164A28.615,28.615,0,0,1,173.6-223.5c-4.3-14.994,3.972-30.568,18.436-34.718a26.63,26.63,0,0,1,20.882,2.672,28.639,28.639,0,0,1,13.146,17,2.829,2.829,0,0,1-1.94,3.5,2.831,2.831,0,0,1-3.5-1.94,23.009,23.009,0,0,0-10.549-13.664,21.016,21.016,0,0,0-16.48-2.126c-11.466,3.289-18,15.724-14.557,27.72a22.946,22.946,0,0,0,14.231,15.372,2.829,2.829,0,0,1,1.718,3.613A2.831,2.831,0,0,1,192.321-204.2Z" transform="translate(-172.462 259.257)"></path><path class="a" d="M405.949-175.726v-4.951h-4.543a11.989,11.989,0,0,1-4.174-.693,10.065,10.065,0,0,1-3.245-1.9,8.43,8.43,0,0,1-2.12-2.891,8.916,8.916,0,0,1-.758-3.7,8.978,8.978,0,0,1,.779-3.743,9.011,9.011,0,0,1,2.142-2.971,9.909,9.909,0,0,1,3.266-1.96,11.617,11.617,0,0,1,4.109-.714h4.543v-4.951h-4.543a18.832,18.832,0,0,0-6.381,1.03,15.118,15.118,0,0,0-4.966,2.872,12.608,12.608,0,0,0-3.223,4.4,13.747,13.747,0,0,0-1.134,5.644,14.223,14.223,0,0,0,1.156,5.744,13.834,13.834,0,0,0,3.244,4.614,15.078,15.078,0,0,0,4.967,3.069,17.47,17.47,0,0,0,6.337,1.109Zm-22.107-4.951h-9.993v-7.01h8.393v-4.952h-8.393v-6.614h9.777v-4.951H368.441v28.479h15.4Zm-29.071-3.05a13.829,13.829,0,0,0,4.759-.772,10.717,10.717,0,0,0,3.613-2.139,9.287,9.287,0,0,0,2.293-3.248,10.257,10.257,0,0,0,.8-4.06,10.518,10.518,0,0,0-.779-4.06,9.237,9.237,0,0,0-2.271-3.268,10.546,10.546,0,0,0-3.612-2.159,13.971,13.971,0,0,0-4.8-.772h-10.3v28.479h5.408v-8Zm-4.888-4.951v-10.576h4.759a8.238,8.238,0,0,1,2.617.4,5.839,5.839,0,0,1,2.011,1.108,5.035,5.035,0,0,1,1.276,1.684,4.833,4.833,0,0,1,.455,2.079,4.923,4.923,0,0,1-.455,2.12,4.9,4.9,0,0,1-1.3,1.683,6.125,6.125,0,0,1-2.011,1.109,8.051,8.051,0,0,1-2.6.4Zm-14.731,12.3A10.042,10.042,0,0,0,338.5-178.2a8.31,8.31,0,0,0,2.163-2.792,8.038,8.038,0,0,0,.779-3.525,8.525,8.525,0,0,0-.714-3.505,8.294,8.294,0,0,0-1.99-2.774,8.941,8.941,0,0,0-3.028-1.8,11.176,11.176,0,0,0-3.829-.634h-3.072a3.971,3.971,0,0,1-2.682-.891,2.784,2.784,0,0,1-1.038-2.2,2.66,2.66,0,0,1,.994-2.061,4,4,0,0,1,2.726-.871h10.6v-4.951H329.072a12.564,12.564,0,0,0-3.958.594,9.251,9.251,0,0,0-3.071,1.664,7.525,7.525,0,0,0-1.969,2.5,6.993,6.993,0,0,0-.691,3.09,7.076,7.076,0,0,0,.691,3.13,7.581,7.581,0,0,0,1.883,2.455,8.583,8.583,0,0,0,2.833,1.6,10.678,10.678,0,0,0,3.548.574H330.8a7.166,7.166,0,0,1,4.132,1.11,3.335,3.335,0,0,1,1.622,2.852,3.334,3.334,0,0,1-1.622,2.852,7.162,7.162,0,0,1-4.132,1.109H319.9v4.951h10.9a13.755,13.755,0,0,0,4.348-.654m-19.013-27.825H310.73v28.479h5.408Zm-23.923,4.951a11.571,11.571,0,0,1,4.132.714,9.978,9.978,0,0,1,3.244,1.96,8.765,8.765,0,0,1,2.12,2.971,9.2,9.2,0,0,1,.757,3.743,9.054,9.054,0,0,1-.735,3.664,8.56,8.56,0,0,1-2.077,2.911,9.618,9.618,0,0,1-3.245,1.92,12.177,12.177,0,0,1-4.2.693h-3.5v-18.577Zm0,23.528a17.358,17.358,0,0,0,6.294-1.109,14.959,14.959,0,0,0,4.954-3.069,14.087,14.087,0,0,0,3.245-4.614,14.1,14.1,0,0,0,1.168-5.744,13.639,13.639,0,0,0-1.147-5.644,12.821,12.821,0,0,0-3.223-4.4,14.978,14.978,0,0,0-4.954-2.872,18.7,18.7,0,0,0-6.338-1.03H283.3v28.479Zm-11.507-4.951h-9.994v-7.01h8.393v-4.952h-8.393v-6.614h9.777v-4.951H265.306v28.479h15.4Zm-62.774,4.951h6.446l13.325-19.25v16a2.939,2.939,0,0,0,1.059,2.337,3.636,3.636,0,0,0,2.444.912,3.97,3.97,0,0,0,1.623-.357,3.772,3.772,0,0,0,1.492-1.347l12.113-17.546v19.25h5.408v-26.221a2.515,2.515,0,0,0-.627-1.782,2.17,2.17,0,0,0-1.666-.673,4.365,4.365,0,0,0-1.709.337,3.46,3.46,0,0,0-1.406,1.128L243.113-184.6v-17.349a2.513,2.513,0,0,0-.627-1.782,2.169,2.169,0,0,0-1.666-.673,4.37,4.37,0,0,0-1.709.337,3.466,3.466,0,0,0-1.406,1.128Z" transform="translate(-193.445 233.945)"></path><path class="a" d="M204.526-204.819a2.825,2.825,0,0,1-.971-.173A16.82,16.82,0,0,1,192.963-216.7a16.645,16.645,0,0,1,1.982-12.806,17.093,17.093,0,0,1,10.522-7.7,17.007,17.007,0,0,1,20.669,12.236,2.829,2.829,0,0,1-2.06,3.43,2.829,2.829,0,0,1-3.429-2.06,11.343,11.343,0,0,0-13.813-8.115,11.468,11.468,0,0,0-7.062,5.16,11.029,11.029,0,0,0-1.319,8.484,11.171,11.171,0,0,0,7.044,7.767,2.829,2.829,0,0,1,1.686,3.628A2.83,2.83,0,0,1,204.526-204.819Z" transform="translate(-181.69 249.321)"></path></svg>